# xmcd
#
# Track frame offsets:
#        150
#        20160
#        33047
#
# Disc length: 609 seconds
#
# Revision: 0
# Processed by: cddbd v1.5.1PL0 Copyright (c) Steve Scherf et al.
# Submitted via: ExactAudioCopy v0.95b2
#
DISCID=1a025f03
DTITLE=PIZZICATO V - Audrey Hepburn Complex
DYEAR=1985
DGENRE=Pop/Funk
TTITLE0=The Audrey Hepburn Complex (EXTENDED STANLEY DONEN MIX)
TTITLE1=The 59th Street Bridge Song - Feelin'Groovy (CLUB MIX - NIGHT
TTITLE1=OWL)
TTITLE2=Let's Go Away For Awhile (CLUB MIX - CAFE BIZARRE)
EXTD=
EXTT0=
EXTT1=
EXTT2=
PLAYORDER=
